<?xml version="1.0" encoding="utf-8"?>
<!-- Generator: Adobe Illustrator 18.0.0, SVG Export Plug-In . SVG Version: 6.00 Build 0)  -->
<!DOCTYPE svg PUBLIC "-//W3C//DTD SVG 1.1//EN" "http://www.w3.org/Graphics/SVG/1.1/DTD/svg11.dtd">
<svg version="1.1" id="Layer_1" xmlns="http://www.w3.org/2000/svg" xmlns:xlink="http://www.w3.org/1999/xlink" x="0px" y="0px"
	 viewBox="7.8 1 87.4 70.1" enable-background="new 7.8 1 87.4 70.1" xml:space="preserve">
<g id="Layer_2">
	<g>
		<circle fill="#FFFFFF" cx="17.5" cy="49.2" r="3.6"/>
		<path fill="#FFFFFF" d="M54.7,49.1c-0.3-1.2-1.5-2-2.7-1.8l-8.6,1.9l-2.5-4.9l4.3,1.3c0.2,0.1,0.4,0.1,0.6,0.1
			c0.8,0,1.6-0.5,2-1.2l4.2-8.4c0.5-1.1,0.1-2.4-1-3c-1.1-0.5-2.4-0.1-3,1l-3.4,6.7l-7.2-2.1c-0.7-0.2-1.6-0.3-2.5-0.1
			c-0.9,0.1-2.3,0.8-2.8,1.2l-8.3,5.9c-0.7,0.6-1.2,1.3-1.4,2.2c-0.1,0.3-0.1,0.6-0.1,0.9c0,0,0,0.1,0,0.1l0,0.3c0,0,0,0,0,0l0,13.5
			c0,1.2,1,2.2,2.2,2.2c0,0,0,0,0,0c1.2,0,2.2-1,2.2-2.2l0-8.3l3.5,2.3l2.5,5.9c0.3,0.6,0.8,0.9,1.3,1.1c0.5,0.1,1,0.1,1.5-0.2
			c0.5-0.3,0.8-0.7,0.9-1.2c0.1-0.3,0.1-0.7-0.1-1.1l-2.8-6.7c-0.1-0.3-0.3-0.5-0.5-0.7l-3.4-2.3l6.3-4.6l0.3-0.3l3.8,6.2
			c0.5,0.7,1.2,1.2,2,1.2c0.2,0,0.3,0,0.5-0.1l10.3-2.2C54.2,51.6,54.9,50.3,54.7,49.1z"/>
	</g>
	<path fill="#FFFFFF" d="M63.8,34.7c-0.6,0-1.2-0.4-1.4-1c-0.2-0.7,0.2-1.6,0.9-1.8c0.7-0.2,1.6,0.2,1.8,0.9
		c0.2,0.7-0.2,1.5-0.9,1.8C64.1,34.7,64,34.7,63.8,34.7L63.8,34.7z M47,30.4c-0.3,0-0.6-0.1-0.9-0.3c-0.3-0.2-0.5-0.6-0.5-0.9
		c-0.1-0.4,0-0.7,0.3-1.1c0.5-0.6,1.4-0.7,2-0.3c0.6,0.5,0.8,1.4,0.3,2C47.9,30.2,47.5,30.4,47,30.4L47,30.4z M61.1,30.1
		c-0.4,0-0.7-0.2-1-0.4c-0.3-0.3-0.4-0.6-0.4-1c0-0.4,0.2-0.7,0.4-1c0.5-0.5,1.5-0.5,2,0c0.5,0.6,0.5,1.5,0,2
		C61.8,30,61.5,30.1,61.1,30.1L61.1,30.1z M56.6,27.3c-0.2,0-0.3,0-0.4-0.1c-0.4-0.1-0.7-0.4-0.8-0.7c-0.2-0.3-0.2-0.7-0.1-1.1
		c0.2-0.7,1.1-1.1,1.8-0.9c0.7,0.2,1.1,1.1,0.9,1.8C57.7,26.9,57.2,27.3,56.6,27.3L56.6,27.3z M51.3,27.2c-0.6,0-1.1-0.4-1.3-1
		c-0.1-0.4-0.1-0.7,0.1-1.1s0.5-0.6,0.8-0.7c0.7-0.2,1.6,0.2,1.8,0.9c0.3,0.7-0.1,1.6-0.9,1.8C51.6,27.2,51.4,27.2,51.3,27.2
		L51.3,27.2z"/>
	<path fill="#FFFFFF" d="M69.6,66.5L88,60.1V13.2L69.6,5.7v37l0,0 M75.5,38.5c-1,0-1.8-1-1.8-2.2c0-1.2,0.8-2.2,1.8-2.2
		c1,0,1.8,1,1.8,2.2C77.2,37.5,76.4,38.5,75.5,38.5z"/>
</g>
</svg>
