<?xml version="1.0" encoding="utf-8"?>
<!-- Generator: Adobe Illustrator 18.1.0, SVG Export Plug-In . SVG Version: 6.00 Build 0)  -->
<svg version="1.1" id="Capa_1" xmlns="http://www.w3.org/2000/svg" xmlns:xlink="http://www.w3.org/1999/xlink" x="0px" y="0px"
	 viewBox="-199 201 100 100" enable-background="new -199 201 100 100" xml:space="preserve">
<g id="Capa_4">
	<path fill="#FFFFFF" d="M-138.5,226.3c2.8-2.7,2.9-7.3,0.2-10.1c-2.7-2.8-7.2-2.9-10.1-0.2c-2.9,2.7-2.9,7.3-0.2,10.1
		C-145.9,228.9-141.4,229-138.5,226.3z M-140.9,267l-5.4-13.2c0-0.3,0.1-0.6,0.1-0.9l0.1-19.2c0-3.3-2.7-6.1-6-6.1
		c-2.1,0-3.9,1-5,2.6l0,0l-6.7,11.1c-0.7,1.1-0.6,2.4,0.2,3.4l7.9,10.1l-2.7-2.9l0,1c0,0.2,0,0.5,0.1,0.7l0,0l1.1,15l1,18.5l6.4-0.1
		l0.1-18.6l0-0.2l-0.2-2.8l1.8,4.4l4.4,17.8l6.2-1.3l-3.3-18.4L-140.9,267z M-157.5,242.6l5.6-9.3l-4.5,9.2l6.2,9.3L-157.5,242.6z"
		/>
	<polygon fill="#FFFFFF" points="-178.7,288 -178.7,286.1 -116.7,286.1 -116.7,288 	"/>
</g>
</svg>
